<svg version="1.1" id="Layer_1" xmlns="http://www.w3.org/2000/svg" xmlns:xlink="http://www.w3.org/1999/xlink" x="0px" y="0px"
	 width="100%" viewBox="0 0 480 272" enable-background="new 0 0 480 272" xml:space="preserve">
<path fill="#000000" opacity="1.000000" stroke="none" 
	d="
M133.707520,173.680130 
	C136.779495,167.009293 131.742569,162.645157 128.993500,157.829346 
	C123.050186,147.417892 116.761810,137.203995 110.694374,126.862488 
	C108.856522,123.730011 107.318733,120.388649 102.251030,121.264336 
	C108.770195,115.731117 115.922279,111.916039 123.881813,108.423950 
	C119.307976,113.557716 123.366348,116.870247 125.461586,120.450180 
	C127.967255,124.731400 130.581650,128.948990 133.215179,133.303650 
	C137.733917,131.865173 141.135147,129.151642 144.809784,126.951614 
	C146.921844,125.687103 146.003632,124.143196 145.141663,122.681557 
	C142.434296,118.090675 139.558731,113.593826 136.996872,108.924194 
	C135.459854,106.122620 133.984039,103.817337 130.066864,105.953079 
	C131.570068,102.047462 146.526413,92.828194 151.875671,92.525131 
	C146.826492,97.150360 150.773087,100.602417 152.833344,104.129219 
	C159.972427,116.350204 167.341034,128.437134 174.477966,140.659363 
	C176.517517,144.152145 178.718414,145.643265 182.505661,142.720978 
	C182.650711,138.950317 181.104385,135.377243 180.216843,131.714203 
	C177.119705,118.931831 173.690262,106.228607 170.710449,93.420067 
	C169.914169,89.997215 167.998138,88.834435 164.961258,88.744286 
	C164.697021,85.913002 166.692764,86.017281 168.182816,85.631233 
	C178.655609,82.917923 189.190247,80.423195 199.587845,77.448692 
	C204.437698,76.061272 206.850037,77.470398 207.837173,82.219627 
	C208.562241,85.708061 210.816208,88.867577 210.329132,92.631226 
	C207.915039,93.402657 207.657990,91.477486 206.956863,90.336838 
	C202.473236,83.042641 196.260559,80.910126 188.203003,83.709412 
	C185.760132,84.558098 185.199295,85.703819 185.892517,88.155167 
	C187.340195,93.274437 188.378662,98.509995 189.847321,103.622490 
	C190.419510,105.614281 190.146469,108.842026 193.684052,108.396103 
	C197.011826,107.976631 199.742691,106.497635 200.531937,102.814392 
	C200.977707,100.734093 200.173370,98.480904 202.161301,95.114037 
	C205.367981,103.201820 206.970245,110.563316 208.442017,118.180504 
	C205.404953,118.449455 205.320480,116.542053 204.628815,115.378586 
	C203.588348,113.628433 202.467529,112.061752 200.559708,111.130531 
	C197.974075,109.868454 195.527191,110.767975 193.443756,111.985672 
	C191.428268,113.163673 192.713104,115.309669 193.109863,117.012779 
	C194.545029,123.173149 196.083694,129.309387 197.520325,135.469437 
	C198.247574,138.587784 199.531784,139.837585 203.138489,138.879044 
	C211.689331,136.606552 217.858780,134.026154 216.934891,122.174881 
	C216.753876,119.852760 216.960922,119.836617 218.897919,116.973099 
	C223.062592,121.682159 221.474594,128.590775 225.167847,133.282135 
	C227.444290,132.095627 226.736908,130.209702 226.745209,128.715363 
	C226.833160,112.889748 226.757996,97.062889 226.916855,81.238266 
	C226.948868,78.048737 226.162918,75.826813 222.602753,75.504318 
	C223.875015,72.816727 225.726974,73.136215 227.267197,73.144302 
	C237.921875,73.200218 248.570526,72.892059 259.236267,73.409187 
	C264.716614,73.674911 266.746552,75.743713 266.410370,80.976341 
	C266.197845,84.284126 268.363434,87.783363 265.722504,90.937218 
	C262.963470,90.661476 263.240234,88.464333 262.777710,86.823166 
	C260.758057,79.656746 253.451981,75.126564 246.208450,76.353287 
	C243.441177,76.821938 243.280655,78.607674 243.271698,80.703423 
	C243.249664,85.867630 243.142227,91.033920 243.259003,96.195076 
	C243.306992,98.316605 242.222641,101.274323 245.717514,101.816467 
	C249.081055,102.338242 251.981003,101.527802 253.683975,98.129211 
	C254.670822,96.159744 254.118393,93.378075 257.413391,91.822594 
	C258.891144,99.842339 258.269165,107.425621 257.731750,115.408607 
	C254.212112,114.246056 254.756561,111.802200 254.123749,110.076706 
	C253.115921,107.328568 251.553162,105.492615 248.506165,105.125618 
	C245.142548,104.720505 243.038025,105.469467 243.148376,109.523094 
	C243.311478,115.515068 243.160950,121.516121 243.113602,127.513069 
	C243.088531,130.688080 242.687042,134.028076 247.484436,135.249817 
	C216.504974,135.604813 187.600281,142.590652 160.197052,157.538742 
	C164.678864,152.496582 160.960175,149.095413 158.787064,145.456528 
	C156.140289,141.024429 153.392303,136.649887 150.857498,132.154938 
	C149.381775,129.538055 147.815781,129.121460 145.256821,130.779999 
	C142.081360,132.838120 138.506393,134.287857 135.444061,137.239319 
	C139.743851,144.443832 144.124603,151.488815 148.176270,158.718246 
	C149.793503,161.603912 152.497665,159.204529 155.598038,161.308472 
	C148.279343,166.162643 141.407059,170.358383 133.707520,173.680130 
z"/>
<path fill="#000000" opacity="1.000000" stroke="none" 
	d="
M374.614807,116.790031 
	C377.635742,122.922043 376.093414,128.127579 372.656036,133.072372 
	C369.101715,138.185303 363.518066,138.409225 357.346619,138.545410 
	C362.217773,146.422379 360.594055,153.149628 355.982269,159.585449 
	C355.405121,160.390900 354.966980,161.313202 354.570801,162.227448 
	C353.800690,164.004456 352.272919,165.855026 354.059692,167.736130 
	C355.721130,169.485321 357.473358,167.962875 359.128021,167.402374 
	C360.073608,167.082077 360.959137,166.714279 361.763428,167.104340 
	C362.220367,168.059540 362.004761,168.648422 361.504150,169.144394 
	C357.675323,172.937515 350.057617,173.234070 344.718597,169.806427 
	C339.187103,166.255203 337.326019,161.116013 339.966705,155.158676 
	C341.984894,150.605591 344.735840,146.382812 346.911377,141.892242 
	C348.717590,138.164001 348.282074,134.763763 344.444458,132.352951 
	C342.440338,131.093933 340.816589,131.039246 339.445465,133.349472 
	C335.874542,139.366089 332.428986,145.478088 328.477539,151.239395 
	C326.377289,154.301620 330.032867,155.559387 329.893982,157.732559 
	C328.528381,158.797562 327.430328,158.221848 326.520935,157.519699 
	C312.021851,146.324631 294.163971,144.166092 277.360657,139.157639 
	C273.653351,138.052628 269.644043,137.714020 264.891693,134.874466 
	C271.358612,134.232651 271.729767,130.109482 272.725067,126.334702 
	C276.118622,113.464211 279.603638,100.617859 283.014252,87.751831 
	C284.028687,83.924988 286.903503,79.803474 281.010620,77.328651 
	C282.955597,75.099625 284.561157,75.979027 286.093262,76.386726 
	C296.712708,79.212547 307.300995,82.160942 317.956787,84.841461 
	C321.876343,85.827438 323.361481,87.984497 322.226959,91.705360 
	C321.059601,95.534012 321.124329,99.783524 319.013245,103.360336 
	C316.257782,102.334557 316.995850,100.425690 316.930511,98.893341 
	C316.573181,90.512207 312.138855,85.558556 304.024475,84.389328 
	C301.845734,84.075378 300.511993,84.628944 299.927979,86.861687 
	C298.128448,93.741379 296.266418,100.604729 294.473083,107.308601 
	C302.567108,113.017868 305.720490,106.659813 309.112976,101.161598 
	C311.247437,105.685944 307.271301,121.215065 303.845734,124.158661 
	C301.895203,122.829201 302.898438,120.827431 302.816681,119.151733 
	C302.685394,116.460754 301.866180,114.294411 299.422150,112.901299 
	C295.062439,110.416298 293.369568,111.106689 292.052490,116.014717 
	C290.370636,122.281998 288.852905,128.597351 286.996826,134.812073 
	C286.102600,137.806198 287.012177,138.937515 289.875732,139.789932 
	C301.200653,143.161087 304.349884,141.999481 310.685577,131.562393 
	C311.638062,129.993286 311.638092,129.993301 314.748230,128.422699 
	C315.665649,134.144180 312.094604,139.055206 312.262543,144.358841 
	C314.145782,145.074631 314.451904,143.585907 314.959656,142.738998 
	C323.352875,128.739182 331.622711,114.664650 340.119720,100.728485 
	C341.825378,97.931015 341.170135,95.912560 339.282684,93.171967 
	C351.683807,100.411469 365.653412,104.430000 374.614807,116.790031 
M351.943329,130.680359 
	C358.168335,128.630737 360.847992,123.447083 362.864868,117.894119 
	C364.966370,112.108162 362.287323,107.783142 355.635468,106.089806 
	C351.900970,112.431984 348.128174,118.882317 344.307251,125.304024 
	C343.015228,127.475479 344.013275,128.668777 345.884918,129.677261 
	C347.554382,130.576797 349.296967,130.968933 351.943329,130.680359 
z"/>
<path fill="#000000" opacity="1.000000" stroke="none" 
	d="
M229.735962,196.142059 
	C231.341415,197.026337 232.641724,197.732590 234.537247,198.762146 
	C236.879623,193.451447 243.242920,190.409515 240.849335,183.018570 
	C240.023346,180.468140 242.253265,178.666260 245.061829,178.803543 
	C247.820999,178.938431 249.965485,180.923172 249.040543,183.347260 
	C246.712311,189.449051 251.765366,192.392654 253.869797,196.587585 
	C254.322830,197.490646 255.148239,198.049942 256.317810,197.934906 
	C258.706665,197.699905 266.149597,191.848053 266.597076,189.417160 
	C267.117706,186.588745 268.767395,185.387558 271.383575,185.333099 
	C273.479584,185.289429 274.826019,186.520554 275.254059,188.541000 
	C275.819733,191.211060 274.693176,193.116882 272.189026,194.076660 
	C267.431702,195.900040 266.288940,200.690994 264.123413,204.400192 
	C261.587189,208.744415 258.507080,210.378601 253.616302,210.138763 
	C246.982040,209.813400 240.318237,209.938736 233.671738,210.083374 
	C230.668076,210.148743 228.741196,209.025986 227.106750,206.534882 
	C223.824280,201.532013 221.953491,195.387909 215.643127,192.745071 
	C213.887177,192.009659 213.736206,189.740997 214.459473,187.840210 
	C215.145111,186.038239 216.674896,185.415390 218.427338,185.360992 
	C220.408691,185.299500 222.526932,186.030167 222.702377,188.019409 
	C223.092712,192.444855 226.507568,193.909332 229.735962,196.142059 
M248.420746,205.934082 
	C252.940994,205.370529 258.651093,207.777191 260.938995,200.920578 
	C253.909302,203.700638 253.963715,203.664078 249.462967,196.966309 
	C248.047714,194.860168 247.183563,192.229385 244.541153,190.727127 
	C243.066467,192.828720 241.788467,194.746078 240.410095,196.588333 
	C238.928802,198.568100 238.169418,201.103485 236.054153,202.579819 
	C233.316437,204.490616 231.486969,200.725220 228.834061,201.106232 
	C229.831985,204.695984 232.018143,206.099442 235.512558,205.963333 
	C239.484894,205.808609 243.468124,205.934036 248.420746,205.934082 
z"/>
<path fill="#000000" opacity="1.000000" stroke="none" 
	d="
M343.851959,199.184753 
	C324.781128,198.673615 306.187103,201.192596 286.530670,199.886978 
	C291.887299,196.343323 348.267151,194.802429 352.305298,197.530975 
	C349.976196,199.956436 346.981476,198.808502 343.851959,199.184753 
z"/>
<path fill="#000000" opacity="1.000000" stroke="none" 
	d="
M187.957397,197.700211 
	C193.100174,198.054504 197.842102,196.960251 203.091141,198.041428 
	C199.421982,200.954422 141.499023,202.855362 137.572906,199.939713 
	C154.169220,198.623184 170.788223,197.683273 187.957397,197.700211 
z"/>
<path fill="#000000" opacity="1.000000" stroke="none" 
	d="
M240.040985,210.844818 
	C247.253540,211.213287 254.128693,209.933090 261.342346,211.999695 
	C257.618744,215.788483 233.349319,216.055222 228.995209,212.857178 
	C232.070724,209.378632 236.098831,211.441360 240.040985,210.844818 
z"/>
</svg>